<?xml version="1.0" encoding="iso-8859-1"?>
<svg version="1.1" id="Capa_1" xmlns="http://www.w3.org/2000/svg" xmlns:xlink="http://www.w3.org/1999/xlink" x="0px" y="0px"
	 viewBox="0 0 511.999 511.999" style="enable-background:new 0 0 511.999 511.999;" xml:space="preserve">
	<g fill="#212121">
		<path d="M352.525,320.497l-56.496-56.496H0v230.034h380.056V340.659C370.021,335.468,360.739,328.71,352.525,320.497z
			 M275.041,314.008h30.004v30.004h-30.004V314.008z M225.033,314.008h30.004v30.004h-30.004V314.008z M230.034,364.016v30.004
			H200.03v-30.004H230.034z M175.026,314.008h30.004v30.004h-30.004V314.008z M180.027,364.016v30.004h-30.004v-30.004H180.027z
			 M125.019,314.008h30.004v30.004h-30.004V314.008z M75.011,314.008h30.004v30.004H75.011V314.008z M50.007,364.016h30.004v30.004
			H50.007V364.016z M94.014,444.028H64.01v-30.004h30.004V444.028z M100.015,364.016h30.004v30.004h-30.004V364.016z
			 M266.039,444.028H114.017v-30.004h152.023V444.028z M280.042,394.02h-30.004v-30.004h30.004V394.02z M316.047,444.028h-30.004
			v-30.004h30.004V444.028z M330.049,394.02h-30.004v-30.004h30.004V394.02z"/>
		<path d="M488.309,184.714l-66.478-66.478c-17.547-17.547-46.101-17.549-63.649,0l-14.851,14.851l55.162,55.162l-21.216,21.216
			l-55.162-55.162l-14.851,14.851c-17.549,17.549-17.549,46.101,0,63.649l66.478,66.478c15.793,15.793,36.538,23.69,57.283,23.69
			c20.745,0,41.49-7.897,57.284-23.69C519.896,267.694,519.896,216.301,488.309,184.714z M446.584,257.556
			c-5.859,5.859-15.357,5.859-21.216,0s-5.859-15.357,0-21.216s15.357-5.859,21.216,0
			C452.443,242.199,452.443,251.697,446.584,257.556z"/>
		<path d="M155.023,153.985h-34.005c-11.03,0-20.003-8.973-20.003-20.003v-3c0-11.03,8.973-20.003,20.003-20.003
			c27.574,0,50.007-22.433,50.007-50.007V17.964h-30.004v43.006c0,11.03-8.973,20.003-20.003,20.003
			c-27.574,0-50.007,22.433-50.007,50.007v3c0,27.574,22.433,50.007,50.007,50.007h34.005c11.03,0,20.003,8.973,20.003,20.003
			v30.004h30.004v-30.004C205.03,176.418,182.597,153.985,155.023,153.985z"/>
		<path d="M314.94,104.658c-8.5-8.501-19.803-13.183-31.825-13.183h-36.078c-8.272,0-15.002-6.73-15.002-15.002V17.964H202.03
			v58.509c0,24.817,20.19,45.007,45.007,45.007h36.078c4.008,0,7.774,1.561,10.609,4.395l7.194,7.194l21.216-21.216L314.94,104.658z
			"/>
	</g>
</svg>
