<?xml version="1.0" encoding="iso-8859-1"?>
<!DOCTYPE svg PUBLIC "-//W3C//DTD SVG 1.1//EN" "http://www.w3.org/Graphics/SVG/1.1/DTD/svg11.dtd">
<svg version="1.1" id="Capa_1" xmlns="http://www.w3.org/2000/svg" xmlns:xlink="http://www.w3.org/1999/xlink" x="0px" y="0px"
	 viewBox="0 0 204.312 204.312" style="enable-background:new 0 0 204.312 204.312;" xml:space="preserve">
	<path fill="#fff" d="M202.025,43.217c-0.466,0.221-4.674,2.17-12.732,4.619c-0.589,32.123-9.692,62.242-25.673,84.861
	c-16.407,23.223-38.236,36.013-61.465,36.013s-45.058-12.79-61.465-36.013c-15.98-22.619-25.083-52.738-25.673-84.861
	c-8.057-2.449-12.266-4.398-12.732-4.619c-1.996-0.947-2.847-3.333-1.9-5.329c0.946-1.995,3.331-2.847,5.324-1.902
	c0.383,0.18,30.996,14.2,92.445,14.792v69.911c0,2.209,1.791,4,4,4s4-1.791,4-4V50.78c61.752-0.591,92.135-14.645,92.441-14.791
	c1.992-0.946,4.381-0.096,5.328,1.9C204.872,39.885,204.021,42.271,202.025,43.217z"/>
</svg>
