<?xml version="1.0" encoding="iso-8859-1"?>
<!-- Generator: Adobe Illustrator 19.0.0, SVG Export Plug-In . SVG Version: 6.00 Build 0)  -->
<svg xmlns="http://www.w3.org/2000/svg" xmlns:xlink="http://www.w3.org/1999/xlink" version="1.1" id="Capa_1" x="0px" y="0px" viewBox="0 0 511 511" style="enable-background:new 0 0 511 511;" xml:space="preserve" width="512px" height="512px">
<g>
	<path d="M487.5,51.999h-464c-12.958,0-23.5,10.542-23.5,23.5v304c0,12.958,10.542,23.5,23.5,23.5h158.057l-11.714,41H135.5   c-4.142,0-7.5,3.358-7.5,7.5s3.358,7.5,7.5,7.5h39.976c0.009,0,0.019,0.002,0.028,0.002c0.008,0,0.016-0.002,0.024-0.002h159.944   c0.008,0,0.016,0.002,0.024,0.002c0.009,0,0.019-0.002,0.028-0.002H375.5c4.142,0,7.5-3.358,7.5-7.5s-3.358-7.5-7.5-7.5h-34.343   l-11.714-41H487.5c12.958,0,23.5-10.542,23.5-23.5v-304C511,62.541,500.458,51.999,487.5,51.999z M325.557,443.999H185.443   l11.714-41h116.686L325.557,443.999z M496,379.499c0,4.687-3.813,8.5-8.5,8.5H319.677c-0.001,0-0.002,0-0.003,0H23.5   c-4.687,0-8.5-3.813-8.5-8.5v-304c0-4.687,3.813-8.5,8.5-8.5h464c4.687,0,8.5,3.813,8.5,8.5V379.499z" fill="#333333"/>
	<path d="M471.5,83.999h-432c-4.142,0-7.5,3.358-7.5,7.5v272c0,4.142,3.358,7.5,7.5,7.5h432c4.142,0,7.5-3.358,7.5-7.5v-272   C479,87.357,475.642,83.999,471.5,83.999z M464,98.999v49H47v-49H464z M47,162.999h105v193H47V162.999z M167,355.999v-193h297v193   H167z" fill="#333333"/>
	<path d="M71.5,130.999h24c4.142,0,7.5-3.358,7.5-7.5s-3.358-7.5-7.5-7.5h-24c-4.142,0-7.5,3.358-7.5,7.5   S67.358,130.999,71.5,130.999z" fill="#333333"/>
	<path d="M127.5,130.999h24c4.142,0,7.5-3.358,7.5-7.5s-3.358-7.5-7.5-7.5h-24c-4.142,0-7.5,3.358-7.5,7.5   S123.358,130.999,127.5,130.999z" fill="#333333"/>
	<path d="M183.5,130.999h24c4.142,0,7.5-3.358,7.5-7.5s-3.358-7.5-7.5-7.5h-24c-4.142,0-7.5,3.358-7.5,7.5   S179.358,130.999,183.5,130.999z" fill="#333333"/>
	<path d="M239.5,130.999h24c4.142,0,7.5-3.358,7.5-7.5s-3.358-7.5-7.5-7.5h-24c-4.142,0-7.5,3.358-7.5,7.5   S235.358,130.999,239.5,130.999z" fill="#333333"/>
	<path d="M295.5,130.999h80c4.142,0,7.5-3.358,7.5-7.5s-3.358-7.5-7.5-7.5h-80c-4.142,0-7.5,3.358-7.5,7.5   S291.358,130.999,295.5,130.999z" fill="#333333"/>
	<path d="M439.5,130.999c1.97,0,3.91-0.8,5.3-2.2c1.4-1.4,2.2-3.33,2.2-5.3c0-1.97-0.8-3.91-2.2-5.3c-1.39-1.4-3.32-2.2-5.3-2.2   s-3.91,0.8-5.3,2.2c-1.4,1.39-2.2,3.33-2.2,5.3c0,1.97,0.8,3.91,2.2,5.3C435.59,130.199,437.53,130.999,439.5,130.999z" fill="#333333"/>
	<path d="M407.5,130.999c1.97,0,3.91-0.8,5.3-2.2c1.4-1.39,2.2-3.33,2.2-5.3c0-1.98-0.8-3.91-2.2-5.3c-1.39-1.4-3.33-2.2-5.3-2.2   c-1.97,0-3.91,0.8-5.3,2.2c-1.4,1.39-2.2,3.32-2.2,5.3c0,1.97,0.8,3.91,2.2,5.3C403.59,130.199,405.53,130.999,407.5,130.999z" fill="#333333"/>
	<path d="M71.5,194.999h56c4.142,0,7.5-3.358,7.5-7.5s-3.358-7.5-7.5-7.5h-56c-4.142,0-7.5,3.358-7.5,7.5   S67.358,194.999,71.5,194.999z" fill="#333333"/>
	<path d="M191.5,194.999h56c4.142,0,7.5-3.358,7.5-7.5s-3.358-7.5-7.5-7.5h-56c-4.142,0-7.5,3.358-7.5,7.5   S187.358,194.999,191.5,194.999z" fill="#333333"/>
	<path d="M279.5,194.999h32c4.142,0,7.5-3.358,7.5-7.5s-3.358-7.5-7.5-7.5h-32c-4.142,0-7.5,3.358-7.5,7.5   S275.358,194.999,279.5,194.999z" fill="#333333"/>
	<path d="M191.5,226.999h56c4.142,0,7.5-3.358,7.5-7.5s-3.358-7.5-7.5-7.5h-56c-4.142,0-7.5,3.358-7.5,7.5   S187.358,226.999,191.5,226.999z" fill="#333333"/>
	<path d="M351.5,243.999h-136c-4.142,0-7.5,3.358-7.5,7.5s3.358,7.5,7.5,7.5h136c4.142,0,7.5-3.358,7.5-7.5   S355.642,243.999,351.5,243.999z" fill="#333333"/>
	<path d="M407.5,243.999h-24c-4.142,0-7.5,3.358-7.5,7.5s3.358,7.5,7.5,7.5h24c4.142,0,7.5-3.358,7.5-7.5   S411.642,243.999,407.5,243.999z" fill="#333333"/>
	<path d="M311.5,307.999h-32c-4.142,0-7.5,3.358-7.5,7.5s3.358,7.5,7.5,7.5h32c4.142,0,7.5-3.358,7.5-7.5   S315.642,307.999,311.5,307.999z" fill="#333333"/>
	<path d="M279.5,226.999h32c4.142,0,7.5-3.358,7.5-7.5s-3.358-7.5-7.5-7.5h-32c-4.142,0-7.5,3.358-7.5,7.5   S275.358,226.999,279.5,226.999z" fill="#333333"/>
	<path d="M247.5,275.999h-56c-4.142,0-7.5,3.358-7.5,7.5s3.358,7.5,7.5,7.5h56c4.142,0,7.5-3.358,7.5-7.5   S251.642,275.999,247.5,275.999z" fill="#333333"/>
	<path d="M311.5,275.999h-32c-4.142,0-7.5,3.358-7.5,7.5s3.358,7.5,7.5,7.5h32c4.142,0,7.5-3.358,7.5-7.5   S315.642,275.999,311.5,275.999z" fill="#333333"/>
	<path d="M127.5,275.999h-56c-4.142,0-7.5,3.358-7.5,7.5s3.358,7.5,7.5,7.5h56c4.142,0,7.5-3.358,7.5-7.5   S131.642,275.999,127.5,275.999z" fill="#333333"/>
	<path d="M127.5,211.999h-32c-4.142,0-7.5,3.358-7.5,7.5s3.358,7.5,7.5,7.5h32c4.142,0,7.5-3.358,7.5-7.5   S131.642,211.999,127.5,211.999z" fill="#333333"/>
	<path d="M127.5,243.999h-32c-4.142,0-7.5,3.358-7.5,7.5s3.358,7.5,7.5,7.5h32c4.142,0,7.5-3.358,7.5-7.5   S131.642,243.999,127.5,243.999z" fill="#333333"/>
	<path d="M127.5,307.999h-32c-4.142,0-7.5,3.358-7.5,7.5s3.358,7.5,7.5,7.5h32c4.142,0,7.5-3.358,7.5-7.5   S131.642,307.999,127.5,307.999z" fill="#333333"/>
</g>
<g>
</g>
<g>
</g>
<g>
</g>
<g>
</g>
<g>
</g>
<g>
</g>
<g>
</g>
<g>
</g>
<g>
</g>
<g>
</g>
<g>
</g>
<g>
</g>
<g>
</g>
<g>
</g>
<g>
</g>
</svg>
